<svg fill="none" height="24" viewBox="0 0 24 24" width="24" xmlns="http://www.w3.org/2000/svg"><g fill="#000"><path d="m19.8361 16.9064c.4432-4.2595.4432-8.55348 0-12.81297-.1386-1.33231-1.6747-2.0072-2.7498-1.20808l-4.1036 3.05041c-1.2936.96156-2.8625 1.48082-4.4743 1.48082h-3.8292c-.55229 0-1 .44771-1 1v4.16662c0 .5523.44771 1 1 1h3.82919c1.61181 0 3.18071.5193 4.47431 1.4809l4.1036 3.0504c1.0751.7991 2.6112.1242 2.7498-1.2081z"/><path d="m9.09262 15.8019c.05744-.2245.00793-.4629-.13414-.6459-.14208-.183-.36075-.2901-.59244-.2901h-2c-.28408 0-.54378.1605-.67082.4146l-1 2c-.17078.3416-.05766.7569.26272.9647l2.13397 1.384c.20261.1314.45609.1572.68102.0693s.39379-.2787.45366-.5126z"/></g></svg>